<svg width="1920" height="1080" viewBox="0 0 1920 1080" xmlns="http://www.w3.org/2000/svg">
  <!-- Background -->
  <rect width="1920" height="1080" fill="#0f172a"/>
  
  <!-- Header -->
  <rect x="0" y="0" width="1920" height="64" fill="#1e293b"/>
  <rect x="24" y="16" width="32" height="32" rx="8" fill="#3b82f6"/>
  <text x="72" y="36" font-family="Inter, sans-serif" font-size="20" font-weight="600" fill="#f1f5f9">CodeFlowOps</text>
  
  <!-- Sidebar -->
  <rect x="0" y="64" width="280" height="1016" fill="#1e293b"/>
  
  <!-- Sidebar Menu Items -->
  <circle cx="36" cy="100" r="6" fill="#64748b"/>
  <text x="56" y="104" font-family="Inter, sans-serif" font-size="14" fill="#94a3b8">Overview</text>
  
  <circle cx="36" cy="130" r="6" fill="#64748b"/>
  <text x="56" y="134" font-family="Inter, sans-serif" font-size="14" fill="#94a3b8">Projects</text>
  
  <rect x="16" y="150" width="248" height="40" rx="8" fill="#3b82f6"/>
  <circle cx="36" cy="170" r="6" fill="white"/>
  <text x="56" y="174" font-family="Inter, sans-serif" font-size="14" font-weight="500" fill="white">Analytics</text>
  
  <circle cx="36" cy="200" r="6" fill="#64748b"/>
  <text x="56" y="204" font-family="Inter, sans-serif" font-size="14" fill="#94a3b8">Environments</text>
  
  <!-- Main Content -->
  <rect x="280" y="64" width="1640" height="1016" fill="#0f172a"/>
  
  <!-- Page Header -->
  <text x="320" y="120" font-family="Inter, sans-serif" font-size="32" font-weight="700" fill="#f1f5f9">Analytics Dashboard</text>
  <text x="320" y="150" font-family="Inter, sans-serif" font-size="16" fill="#94a3b8">Real-time deployment metrics and performance insights</text>
  
  <!-- Time Filter -->
  <rect x="1620" y="100" width="120" height="36" rx="6" fill="#1e293b" stroke="#374151" stroke-width="1"/>
  <text x="1635" y="122" font-family="Inter, sans-serif" font-size="14" fill="#f1f5f9">Last 7 days ▼</text>
  
  <!-- KPI Cards -->
  <rect x="320" y="180" width="260" height="140" rx="12" fill="#1e293b" stroke="#334155" stroke-width="1"/>
  <text x="340" y="210" font-family="Inter, sans-serif" font-size="14" font-weight="500" fill="#94a3b8">Total Deployments</text>
  <text x="340" y="250" font-family="Inter, sans-serif" font-size="42" font-weight="700" fill="#f1f5f9">1,247</text>
  <text x="340" y="280" font-family="Inter, sans-serif" font-size="14" fill="#10b981">↗ +23% vs last week</text>
  <rect x="340" y="290" width="200" height="4" rx="2" fill="#374151"/>
  <rect x="340" y="290" width="140" height="4" rx="2" fill="#10b981"/>
  
  <rect x="600" y="180" width="260" height="140" rx="12" fill="#1e293b" stroke="#334155" stroke-width="1"/>
  <text x="620" y="210" font-family="Inter, sans-serif" font-size="14" font-weight="500" fill="#94a3b8">Success Rate</text>
  <text x="620" y="250" font-family="Inter, sans-serif" font-size="42" font-weight="700" fill="#f1f5f9">98.6%</text>
  <text x="620" y="280" font-family="Inter, sans-serif" font-size="14" fill="#10b981">↗ +2.1% improvement</text>
  <rect x="620" y="290" width="200" height="4" rx="2" fill="#374151"/>
  <rect x="620" y="290" width="196" height="4" rx="2" fill="#10b981"/>
  
  <rect x="880" y="180" width="260" height="140" rx="12" fill="#1e293b" stroke="#334155" stroke-width="1"/>
  <text x="900" y="210" font-family="Inter, sans-serif" font-size="14" font-weight="500" fill="#94a3b8">Avg Deploy Time</text>
  <text x="900" y="250" font-family="Inter, sans-serif" font-size="42" font-weight="700" fill="#f1f5f9">2m 34s</text>
  <text x="900" y="280" font-family="Inter, sans-serif" font-size="14" fill="#10b981">↘ -45s faster</text>
  <rect x="900" y="290" width="200" height="4" rx="2" fill="#374151"/>
  <rect x="900" y="290" width="120" height="4" rx="2" fill="#f59e0b"/>
  
  <rect x="1160" y="180" width="260" height="140" rx="12" fill="#1e293b" stroke="#334155" stroke-width="1"/>
  <text x="1180" y="210" font-family="Inter, sans-serif" font-size="14" font-weight="500" fill="#94a3b8">Failed Deployments</text>
  <text x="1180" y="250" font-family="Inter, sans-serif" font-size="42" font-weight="700" fill="#f1f5f9">18</text>
  <text x="1180" y="280" font-family="Inter, sans-serif" font-size="14" fill="#ef4444">↗ +3 vs last week</text>
  <rect x="1180" y="290" width="200" height="4" rx="2" fill="#374151"/>
  <rect x="1180" y="290" width="30" height="4" rx="2" fill="#ef4444"/>
  
  <!-- Large Chart -->
  <rect x="320" y="340" width="800" height="380" rx="12" fill="#1e293b" stroke="#334155" stroke-width="1"/>
  <text x="340" y="370" font-family="Inter, sans-serif" font-size="18" font-weight="600" fill="#f1f5f9">Deployment Timeline</text>
  
  <!-- Chart Area -->
  <rect x="340" y="390" width="760" height="300" fill="#0f172a" rx="8"/>
  
  <!-- Chart Grid Lines -->
  <line x1="340" y1="450" x2="1100" y2="450" stroke="#374151" stroke-width="1" opacity="0.3"/>
  <line x1="340" y1="510" x2="1100" y2="510" stroke="#374151" stroke-width="1" opacity="0.3"/>
  <line x1="340" y1="570" x2="1100" y2="570" stroke="#374151" stroke-width="1" opacity="0.3"/>
  <line x1="340" y1="630" x2="1100" y2="630" stroke="#374151" stroke-width="1" opacity="0.3"/>
  
  <!-- Vertical Grid -->
  <line x1="440" y1="390" x2="440" y2="690" stroke="#374151" stroke-width="1" opacity="0.2"/>
  <line x1="560" y1="390" x2="560" y2="690" stroke="#374151" stroke-width="1" opacity="0.2"/>
  <line x1="680" y1="390" x2="680" y2="690" stroke="#374151" stroke-width="1" opacity="0.2"/>
  <line x1="800" y1="390" x2="800" y2="690" stroke="#374151" stroke-width="1" opacity="0.2"/>
  <line x1="920" y1="390" x2="920" y2="690" stroke="#374151" stroke-width="1" opacity="0.2"/>
  <line x1="1040" y1="390" x2="1040" y2="690" stroke="#374151" stroke-width="1" opacity="0.2"/>
  
  <!-- Chart Data Lines -->
  <polyline points="360,620 440,600 520,580 600,570 680,560 760,550 840,545 920,540 1000,535 1080,530" 
            stroke="#3b82f6" stroke-width="3" fill="none"/>
  <polyline points="360,640 440,635 520,630 600,625 680,620 760,615 840,610 920,605 1000,600 1080,595" 
            stroke="#10b981" stroke-width="3" fill="none"/>
  
  <!-- Data Points -->
  <circle cx="360" cy="620" r="4" fill="#3b82f6"/>
  <circle cx="520" cy="580" r="4" fill="#3b82f6"/>
  <circle cx="680" cy="560" r="4" fill="#3b82f6"/>
  <circle cx="840" cy="545" r="4" fill="#3b82f6"/>
  <circle cx="1080" cy="530" r="4" fill="#3b82f6"/>
  
  <!-- Y-axis Labels -->
  <text x="325" y="454" font-family="Inter, sans-serif" font-size="12" fill="#64748b" text-anchor="end">100</text>
  <text x="325" y="514" font-family="Inter, sans-serif" font-size="12" fill="#64748b" text-anchor="end">75</text>
  <text x="325" y="574" font-family="Inter, sans-serif" font-size="12" fill="#64748b" text-anchor="end">50</text>
  <text x="325" y="634" font-family="Inter, sans-serif" font-size="12" fill="#64748b" text-anchor="end">25</text>
  
  <!-- X-axis Labels -->
  <text x="440" y="710" font-family="Inter, sans-serif" font-size="12" fill="#64748b" text-anchor="middle">Mon</text>
  <text x="560" y="710" font-family="Inter, sans-serif" font-size="12" fill="#64748b" text-anchor="middle">Tue</text>
  <text x="680" y="710" font-family="Inter, sans-serif" font-size="12" fill="#64748b" text-anchor="middle">Wed</text>
  <text x="800" y="710" font-family="Inter, sans-serif" font-size="12" fill="#64748b" text-anchor="middle">Thu</text>
  <text x="920" y="710" font-family="Inter, sans-serif" font-size="12" fill="#64748b" text-anchor="middle">Fri</text>
  <text x="1040" y="710" font-family="Inter, sans-serif" font-size="12" fill="#64748b" text-anchor="middle">Sat</text>
  
  <!-- Chart Legend -->
  <rect x="360" y="400" width="12" height="3" fill="#3b82f6"/>
  <text x="380" y="408" font-family="Inter, sans-serif" font-size="12" fill="#94a3b8">Deployments</text>
  <rect x="480" y="400" width="12" height="3" fill="#10b981"/>
  <text x="500" y="408" font-family="Inter, sans-serif" font-size="12" fill="#94a3b8">Success Rate</text>
  
  <!-- Right Side Panel -->
  <rect x="1140" y="340" width="280" height="380" rx="12" fill="#1e293b" stroke="#334155" stroke-width="1"/>
  <text x="1160" y="370" font-family="Inter, sans-serif" font-size="18" font-weight="600" fill="#f1f5f9">Top Projects</text>
  
  <!-- Project List -->
  <rect x="1160" y="390" width="240" height="50" rx="6" fill="#0f172a"/>
  <circle cx="1180" cy="415" r="6" fill="#10b981"/>
  <text x="1200" y="410" font-family="Inter, sans-serif" font-size="14" font-weight="500" fill="#f1f5f9">frontend-app</text>
  <text x="1200" y="425" font-family="Inter, sans-serif" font-size="12" fill="#94a3b8">342 deployments</text>
  <text x="1370" y="420" font-family="Inter, sans-serif" font-size="14" font-weight="600" fill="#10b981">99.7%</text>
  
  <rect x="1160" y="450" width="240" height="50" rx="6" fill="#0f172a"/>
  <circle cx="1180" cy="475" r="6" fill="#3b82f6"/>
  <text x="1200" y="470" font-family="Inter, sans-serif" font-size="14" font-weight="500" fill="#f1f5f9">api-service</text>
  <text x="1200" y="485" font-family="Inter, sans-serif" font-size="12" fill="#94a3b8">298 deployments</text>
  <text x="1370" y="480" font-family="Inter, sans-serif" font-size="14" font-weight="600" fill="#3b82f6">98.2%</text>
  
  <rect x="1160" y="510" width="240" height="50" rx="6" fill="#0f172a"/>
  <circle cx="1180" cy="535" r="6" fill="#f59e0b"/>
  <text x="1200" y="530" font-family="Inter, sans-serif" font-size="14" font-weight="500" fill="#f1f5f9">worker-queue</text>
  <text x="1200" y="545" font-family="Inter, sans-serif" font-size="12" fill="#94a3b8">189 deployments</text>
  <text x="1370" y="540" font-family="Inter, sans-serif" font-size="14" font-weight="600" fill="#f59e0b">97.1%</text>
  
  <rect x="1160" y="570" width="240" height="50" rx="6" fill="#0f172a"/>
  <circle cx="1180" cy="595" r="6" fill="#8b5cf6"/>
  <text x="1200" y="590" font-family="Inter, sans-serif" font-size="14" font-weight="500" fill="#f1f5f9">mobile-app</text>
  <text x="1200" y="605" font-family="Inter, sans-serif" font-size="12" fill="#94a3b8">156 deployments</text>
  <text x="1370" y="600" font-family="Inter, sans-serif" font-size="14" font-weight="600" fill="#8b5cf6">96.8%</text>
  
  <!-- Bottom Charts -->
  <rect x="320" y="740" width="520" height="300" rx="12" fill="#1e293b" stroke="#334155" stroke-width="1"/>
  <text x="340" y="770" font-family="Inter, sans-serif" font-size="18" font-weight="600" fill="#f1f5f9">Deployment Duration</text>
  
  <!-- Bar Chart -->
  <rect x="340" y="790" width="480" height="200" fill="#0f172a" rx="8"/>
  
  <!-- Bars -->
  <rect x="360" y="920" width="40" height="60" fill="#3b82f6"/>
  <rect x="420" y="940" width="40" height="40" fill="#3b82f6"/>
  <rect x="480" y="930" width="40" height="50" fill="#3b82f6"/>
  <rect x="540" y="910" width="40" height="70" fill="#3b82f6"/>
  <rect x="600" y="950" width="40" height="30" fill="#3b82f6"/>
  <rect x="660" y="900" width="40" height="80" fill="#3b82f6"/>
  <rect x="720" y="935" width="40" height="45" fill="#3b82f6"/>
  
  <!-- Bar Labels -->
  <text x="380" y="1005" font-family="Inter, sans-serif" font-size="10" fill="#64748b" text-anchor="middle">Mon</text>
  <text x="440" y="1005" font-family="Inter, sans-serif" font-size="10" fill="#64748b" text-anchor="middle">Tue</text>
  <text x="500" y="1005" font-family="Inter, sans-serif" font-size="10" fill="#64748b" text-anchor="middle">Wed</text>
  <text x="560" y="1005" font-family="Inter, sans-serif" font-size="10" fill="#64748b" text-anchor="middle">Thu</text>
  <text x="620" y="1005" font-family="Inter, sans-serif" font-size="10" fill="#64748b" text-anchor="middle">Fri</text>
  <text x="680" y="1005" font-family="Inter, sans-serif" font-size="10" fill="#64748b" text-anchor="middle">Sat</text>
  <text x="740" y="1005" font-family="Inter, sans-serif" font-size="10" fill="#64748b" text-anchor="middle">Sun</text>
  
  <!-- Right Bottom Chart -->
  <rect x="860" y="740" width="560" height="300" rx="12" fill="#1e293b" stroke="#334155" stroke-width="1"/>
  <text x="880" y="770" font-family="Inter, sans-serif" font-size="18" font-weight="600" fill="#f1f5f9">Environment Distribution</text>
  
  <!-- Pie Chart Area -->
  <circle cx="1000" cy="900" r="80" fill="#0f172a"/>
  
  <!-- Pie Segments -->
  <path d="M 1000 820 A 80 80 0 0 1 1056 856 L 1000 900 Z" fill="#3b82f6"/>
  <path d="M 1056 856 A 80 80 0 0 1 1056 944 L 1000 900 Z" fill="#10b981"/>
  <path d="M 1056 944 A 80 80 0 0 1 920 900 L 1000 900 Z" fill="#f59e0b"/>
  <path d="M 920 900 A 80 80 0 1 1 1000 820 L 1000 900 Z" fill="#ef4444"/>
  
  <!-- Legend -->
  <rect x="1120" y="840" width="12" height="12" fill="#3b82f6"/>
  <text x="1140" y="851" font-family="Inter, sans-serif" font-size="12" fill="#f1f5f9">Production (45%)</text>
  
  <rect x="1120" y="860" width="12" height="12" fill="#10b981"/>
  <text x="1140" y="871" font-family="Inter, sans-serif" font-size="12" fill="#f1f5f9">Staging (28%)</text>
  
  <rect x="1120" y="880" width="12" height="12" fill="#f59e0b"/>
  <text x="1140" y="891" font-family="Inter, sans-serif" font-size="12" fill="#f1f5f9">Development (18%)</text>
  
  <rect x="1120" y="900" width="12" height="12" fill="#ef4444"/>
  <text x="1140" y="911" font-family="Inter, sans-serif" font-size="12" fill="#f1f5f9">Testing (9%)</text>
</svg>
