<svg width="1920" height="1080" viewBox="0 0 1920 1080" xmlns="http://www.w3.org/2000/svg">
  <!-- Background -->
  <rect width="1920" height="1080" fill="#0f172a"/>
  
  <!-- Header -->
  <rect x="0" y="0" width="1920" height="64" fill="#1e293b"/>
  <rect x="24" y="16" width="32" height="32" rx="8" fill="#3b82f6"/>
  <text x="72" y="36" font-family="Inter, sans-serif" font-size="20" font-weight="600" fill="#f1f5f9">CodeFlowOps</text>
  
  <!-- Sidebar -->
  <rect x="0" y="64" width="280" height="1016" fill="#1e293b"/>
  
  <!-- Sidebar Menu Items -->
  <circle cx="36" cy="100" r="6" fill="#64748b"/>
  <text x="56" y="104" font-family="Inter, sans-serif" font-size="14" fill="#94a3b8">Overview</text>
  
  <circle cx="36" cy="130" r="6" fill="#64748b"/>
  <text x="56" y="134" font-family="Inter, sans-serif" font-size="14" fill="#94a3b8">Projects</text>
  
  <circle cx="36" cy="160" r="6" fill="#64748b"/>
  <text x="56" y="164" font-family="Inter, sans-serif" font-size="14" fill="#94a3b8">Analytics</text>
  
  <rect x="16" y="180" width="248" height="40" rx="8" fill="#3b82f6"/>
  <circle cx="36" cy="200" r="6" fill="white"/>
  <text x="56" y="204" font-family="Inter, sans-serif" font-size="14" font-weight="500" fill="white">Multi-Tenant</text>
  
  <!-- Main Content -->
  <rect x="280" y="64" width="1640" height="1016" fill="#0f172a"/>
  
  <!-- Page Header -->
  <text x="320" y="120" font-family="Inter, sans-serif" font-size="32" font-weight="700" fill="#f1f5f9">Multi-Tenant Management</text>
  <text x="320" y="150" font-family="Inter, sans-serif" font-size="16" fill="#94a3b8">Manage and monitor tenant deployments across environments</text>
  
  <!-- Tenant Filter Bar -->
  <rect x="320" y="170" width="1500" height="60" rx="8" fill="#1e293b" stroke="#334155" stroke-width="1"/>
  
  <!-- Search Box -->
  <rect x="340" y="185" width="300" height="30" rx="6" fill="#0f172a" stroke="#374151" stroke-width="1"/>
  <text x="350" y="204" font-family="Inter, sans-serif" font-size="14" fill="#64748b">🔍 Search tenants...</text>
  
  <!-- Filter Buttons -->
  <rect x="660" y="185" width="80" height="30" rx="6" fill="#3b82f6"/>
  <text x="690" y="204" font-family="Inter, sans-serif" font-size="12" font-weight="500" fill="white">All (247)</text>
  
  <rect x="750" y="185" width="80" height="30" rx="6" fill="#1e293b" stroke="#374151" stroke-width="1"/>
  <text x="775" y="204" font-family="Inter, sans-serif" font-size="12" fill="#94a3b8">Active (198)</text>
  
  <rect x="840" y="185" width="80" height="30" rx="6" fill="#1e293b" stroke="#374151" stroke-width="1"/>
  <text x="865" y="204" font-family="Inter, sans-serif" font-size="12" fill="#94a3b8">Inactive (32)</text>
  
  <rect x="930" y="185" width="80" height="30" rx="6" fill="#1e293b" stroke="#374151" stroke-width="1"/>
  <text x="955" y="204" font-family="Inter, sans-serif" font-size="12" fill="#94a3b8">Trial (17)</text>
  
  <!-- Action Buttons -->
  <rect x="1600" y="185" width="100" height="30" rx="6" fill="#10b981"/>
  <text x="1630" y="204" font-family="Inter, sans-serif" font-size="12" font-weight="500" fill="white">+ New Tenant</text>
  
  <rect x="1710" y="185" width="80" height="30" rx="6" fill="#374151"/>
  <text x="1740" y="204" font-family="Inter, sans-serif" font-size="12" fill="#f1f5f9">Export</text>
  
  <!-- Tenant Grid Header -->
  <rect x="320" y="260" width="1500" height="40" rx="8" fill="#1e293b"/>
  <text x="340" y="284" font-family="Inter, sans-serif" font-size="14" font-weight="600" fill="#f1f5f9">Tenant</text>
  <text x="580" y="284" font-family="Inter, sans-serif" font-size="14" font-weight="600" fill="#f1f5f9">Status</text>
  <text x="680" y="284" font-family="Inter, sans-serif" font-size="14" font-weight="600" fill="#f1f5f9">Plan</text>
  <text x="780" y="284" font-family="Inter, sans-serif" font-size="14" font-weight="600" fill="#f1f5f9">Deployments</text>
  <text x="920" y="284" font-family="Inter, sans-serif" font-size="14" font-weight="600" fill="#f1f5f9">Last Activity</text>
  <text x="1100" y="284" font-family="Inter, sans-serif" font-size="14" font-weight="600" fill="#f1f5f9">Usage</text>
  <text x="1300" y="284" font-family="Inter, sans-serif" font-size="14" font-weight="600" fill="#f1f5f9">Health</text>
  <text x="1500" y="284" font-family="Inter, sans-serif" font-size="14" font-weight="600" fill="#f1f5f9">Actions</text>
  
  <!-- Tenant Rows -->
  <!-- Row 1 -->
  <rect x="320" y="300" width="1500" height="60" rx="8" fill="#0f172a" stroke="#334155" stroke-width="1"/>
  <circle cx="350" cy="330" r="16" fill="#3b82f6"/>
  <text x="343" y="335" font-family="Inter, sans-serif" font-size="12" font-weight="600" fill="white">AC</text>
  <text x="380" y="320" font-family="Inter, sans-serif" font-size="14" font-weight="500" fill="#f1f5f9">Acme Corporation</text>
  <text x="380" y="340" font-family="Inter, sans-serif" font-size="12" fill="#64748b">acme-corp.codeflowops.com</text>
  
  <rect x="580" y="320" width="60" height="20" rx="10" fill="#10b981" fill-opacity="0.2"/>
  <text x="605" y="332" font-family="Inter, sans-serif" font-size="10" font-weight="500" fill="#10b981">ACTIVE</text>
  
  <text x="680" y="330" font-family="Inter, sans-serif" font-size="14" fill="#f1f5f9">Enterprise</text>
  <text x="680" y="345" font-family="Inter, sans-serif" font-size="12" fill="#64748b">$299/mo</text>
  
  <text x="780" y="325" font-family="Inter, sans-serif" font-size="18" font-weight="600" fill="#f1f5f9">142</text>
  <text x="780" y="345" font-family="Inter, sans-serif" font-size="12" fill="#10b981">+12 this week</text>
  
  <text x="920" y="330" font-family="Inter, sans-serif" font-size="14" fill="#f1f5f9">2 hours ago</text>
  <text x="920" y="345" font-family="Inter, sans-serif" font-size="12" fill="#64748b">Deploy: api-v2.1.3</text>
  
  <rect x="1100" y="315" width="120" height="8" rx="4" fill="#374151"/>
  <rect x="1100" y="315" width="84" height="8" rx="4" fill="#3b82f6"/>
  <text x="1100" y="340" font-family="Inter, sans-serif" font-size="12" fill="#94a3b8">70% of quota</text>
  
  <circle cx="1320" cy="330" r="6" fill="#10b981"/>
  <text x="1335" y="335" font-family="Inter, sans-serif" font-size="14" fill="#10b981">Healthy</text>
  
  <rect x="1500" y="320" width="60" height="20" rx="4" fill="#374151"/>
  <text x="1522" y="332" font-family="Inter, sans-serif" font-size="10" fill="#f1f5f9">⚙️ Manage</text>
  
  <!-- Row 2 -->
  <rect x="320" y="370" width="1500" height="60" rx="8" fill="#0f172a" stroke="#334155" stroke-width="1"/>
  <circle cx="350" cy="400" r="16" fill="#10b981"/>
  <text x="344" y="405" font-family="Inter, sans-serif" font-size="12" font-weight="600" fill="white">TS</text>
  <text x="380" y="390" font-family="Inter, sans-serif" font-size="14" font-weight="500" fill="#f1f5f9">TechStart Inc</text>
  <text x="380" y="410" font-family="Inter, sans-serif" font-size="12" fill="#64748b">techstart.codeflowops.com</text>
  
  <rect x="580" y="390" width="60" height="20" rx="10" fill="#10b981" fill-opacity="0.2"/>
  <text x="605" y="402" font-family="Inter, sans-serif" font-size="10" font-weight="500" fill="#10b981">ACTIVE</text>
  
  <text x="680" y="400" font-family="Inter, sans-serif" font-size="14" fill="#f1f5f9">Pro</text>
  <text x="680" y="415" font-family="Inter, sans-serif" font-size="12" fill="#64748b">$99/mo</text>
  
  <text x="780" y="395" font-family="Inter, sans-serif" font-size="18" font-weight="600" fill="#f1f5f9">89</text>
  <text x="780" y="415" font-family="Inter, sans-serif" font-size="12" fill="#10b981">+8 this week</text>
  
  <text x="920" y="400" font-family="Inter, sans-serif" font-size="14" fill="#f1f5f9">6 hours ago</text>
  <text x="920" y="415" font-family="Inter, sans-serif" font-size="12" fill="#64748b">Deploy: frontend-v1.4.2</text>
  
  <rect x="1100" y="385" width="120" height="8" rx="4" fill="#374151"/>
  <rect x="1100" y="385" width="48" height="8" rx="4" fill="#10b981"/>
  <text x="1100" y="410" font-family="Inter, sans-serif" font-size="12" fill="#94a3b8">40% of quota</text>
  
  <circle cx="1320" cy="400" r="6" fill="#10b981"/>
  <text x="1335" y="405" font-family="Inter, sans-serif" font-size="14" fill="#10b981">Healthy</text>
  
  <rect x="1500" y="390" width="60" height="20" rx="4" fill="#374151"/>
  <text x="1522" y="402" font-family="Inter, sans-serif" font-size="10" fill="#f1f5f9">⚙️ Manage</text>
  
  <!-- Row 3 -->
  <rect x="320" y="440" width="1500" height="60" rx="8" fill="#0f172a" stroke="#334155" stroke-width="1"/>
  <circle cx="350" cy="470" r="16" fill="#f59e0b"/>
  <text x="344" y="475" font-family="Inter, sans-serif" font-size="12" font-weight="600" fill="white">DS</text>
  <text x="380" y="460" font-family="Inter, sans-serif" font-size="14" font-weight="500" fill="#f1f5f9">DataSync Solutions</text>
  <text x="380" y="480" font-family="Inter, sans-serif" font-size="12" fill="#64748b">datasync.codeflowops.com</text>
  
  <rect x="580" y="460" width="60" height="20" rx="10" fill="#f59e0b" fill-opacity="0.2"/>
  <text x="605" y="472" font-family="Inter, sans-serif" font-size="10" font-weight="500" fill="#f59e0b">TRIAL</text>
  
  <text x="680" y="470" font-family="Inter, sans-serif" font-size="14" fill="#f1f5f9">Starter</text>
  <text x="680" y="485" font-family="Inter, sans-serif" font-size="12" fill="#64748b">$0/mo</text>
  
  <text x="780" y="465" font-family="Inter, sans-serif" font-size="18" font-weight="600" fill="#f1f5f9">23</text>
  <text x="780" y="485" font-family="Inter, sans-serif" font-size="12" fill="#64748b">+3 this week</text>
  
  <text x="920" y="470" font-family="Inter, sans-serif" font-size="14" fill="#f1f5f9">1 day ago</text>
  <text x="920" y="485" font-family="Inter, sans-serif" font-size="12" fill="#64748b">Deploy: worker-v1.0.1</text>
  
  <rect x="1100" y="455" width="120" height="8" rx="4" fill="#374151"/>
  <rect x="1100" y="455" width="12" height="8" rx="4" fill="#f59e0b"/>
  <text x="1100" y="480" font-family="Inter, sans-serif" font-size="12" fill="#94a3b8">10% of quota</text>
  
  <circle cx="1320" cy="470" r="6" fill="#f59e0b"/>
  <text x="1335" y="475" font-family="Inter, sans-serif" font-size="14" fill="#f59e0b">Warning</text>
  
  <rect x="1500" y="460" width="60" height="20" rx="4" fill="#374151"/>
  <text x="1522" y="472" font-family="Inter, sans-serif" font-size="10" fill="#f1f5f9">⚙️ Manage</text>
  
  <!-- Row 4 -->
  <rect x="320" y="510" width="1500" height="60" rx="8" fill="#0f172a" stroke="#334155" stroke-width="1"/>
  <circle cx="350" cy="540" r="16" fill="#ef4444"/>
  <text x="344" y="545" font-family="Inter, sans-serif" font-size="12" font-weight="600" fill="white">GL</text>
  <text x="380" y="530" font-family="Inter, sans-serif" font-size="14" font-weight="500" fill="#f1f5f9">GlobalLogistics Corp</text>
  <text x="380" y="550" font-family="Inter, sans-serif" font-size="12" fill="#64748b">global-logistics.codeflowops.com</text>
  
  <rect x="580" y="530" width="60" height="20" rx="10" fill="#ef4444" fill-opacity="0.2"/>
  <text x="600" y="542" font-family="Inter, sans-serif" font-size="10" font-weight="500" fill="#ef4444">SUSPENDED</text>
  
  <text x="680" y="540" font-family="Inter, sans-serif" font-size="14" fill="#f1f5f9">Enterprise</text>
  <text x="680" y="555" font-family="Inter, sans-serif" font-size="12" fill="#64748b">$299/mo</text>
  
  <text x="780" y="535" font-family="Inter, sans-serif" font-size="18" font-weight="600" fill="#f1f5f9">67</text>
  <text x="780" y="555" font-family="Inter, sans-serif" font-size="12" fill="#64748b">No activity</text>
  
  <text x="920" y="540" font-family="Inter, sans-serif" font-size="14" fill="#f1f5f9">3 days ago</text>
  <text x="920" y="555" font-family="Inter, sans-serif" font-size="12" fill="#64748b">Failed: payment-issue</text>
  
  <rect x="1100" y="525" width="120" height="8" rx="4" fill="#374151"/>
  <rect x="1100" y="525" width="100" height="8" rx="4" fill="#ef4444"/>
  <text x="1100" y="550" font-family="Inter, sans-serif" font-size="12" fill="#94a3b8">83% of quota</text>
  
  <circle cx="1320" cy="540" r="6" fill="#ef4444"/>
  <text x="1335" y="545" font-family="Inter, sans-serif" font-size="14" fill="#ef4444">Critical</text>
  
  <rect x="1500" y="530" width="60" height="20" rx="4" fill="#374151"/>
  <text x="1522" y="542" font-family="Inter, sans-serif" font-size="10" fill="#f1f5f9">⚙️ Manage</text>
  
  <!-- Summary Stats Cards -->
  <rect x="320" y="600" width="300" height="120" rx="12" fill="#1e293b" stroke="#334155" stroke-width="1"/>
  <text x="340" y="630" font-family="Inter, sans-serif" font-size="14" font-weight="500" fill="#94a3b8">Total Revenue</text>
  <text x="340" y="665" font-family="Inter, sans-serif" font-size="28" font-weight="700" fill="#f1f5f9">$47,892</text>
  <text x="340" y="685" font-family="Inter, sans-serif" font-size="12" fill="#10b981">↗ +18% this month</text>
  <text x="340" y="705" font-family="Inter, sans-serif" font-size="12" fill="#64748b">Monthly recurring revenue</text>
  
  <rect x="640" y="600" width="300" height="120" rx="12" fill="#1e293b" stroke="#334155" stroke-width="1"/>
  <text x="660" y="630" font-family="Inter, sans-serif" font-size="14" font-weight="500" fill="#94a3b8">Active Tenants</text>
  <text x="660" y="665" font-family="Inter, sans-serif" font-size="28" font-weight="700" fill="#f1f5f9">198</text>
  <text x="660" y="685" font-family="Inter, sans-serif" font-size="12" fill="#10b981">↗ +12 new this month</text>
  <text x="660" y="705" font-family="Inter, sans-serif" font-size="12" fill="#64748b">80.2% of total tenants</text>
  
  <rect x="960" y="600" width="300" height="120" rx="12" fill="#1e293b" stroke="#334155" stroke-width="1"/>
  <text x="980" y="630" font-family="Inter, sans-serif" font-size="14" font-weight="500" fill="#94a3b8">Total Deployments</text>
  <text x="980" y="665" font-family="Inter, sans-serif" font-size="28" font-weight="700" fill="#f1f5f9">3,247</text>
  <text x="980" y="685" font-family="Inter, sans-serif" font-size="12" fill="#10b981">↗ +247 this week</text>
  <text x="980" y="705" font-family="Inter, sans-serif" font-size="12" fill="#64748b">Across all tenants</text>
  
  <rect x="1280" y="600" width="300" height="120" rx="12" fill="#1e293b" stroke="#334155" stroke-width="1"/>
  <text x="1300" y="630" font-family="Inter, sans-serif" font-size="14" font-weight="500" fill="#94a3b8">Resource Usage</text>
  <text x="1300" y="665" font-family="Inter, sans-serif" font-size="28" font-weight="700" fill="#f1f5f9">67.3%</text>
  <text x="1300" y="685" font-family="Inter, sans-serif" font-size="12" fill="#f59e0b">↗ +5.2% increase</text>
  <text x="1300" y="705" font-family="Inter, sans-serif" font-size="12" fill="#64748b">Overall platform usage</text>
  
  <!-- Resource Allocation Chart -->
  <rect x="320" y="740" width="760" height="300" rx="12" fill="#1e293b" stroke="#334155" stroke-width="1"/>
  <text x="340" y="770" font-family="Inter, sans-serif" font-size="18" font-weight="600" fill="#f1f5f9">Resource Allocation by Plan</text>
  
  <!-- Stacked Bar Chart -->
  <rect x="340" y="800" width="720" height="200" fill="#0f172a" rx="8"/>
  
  <!-- Enterprise Bars -->
  <rect x="360" y="820" width="100" height="20" fill="#3b82f6"/>
  <text x="365" y="834" font-family="Inter, sans-serif" font-size="10" fill="white">Enterprise</text>
  <rect x="360" y="845" width="300" height="15" fill="#3b82f6"/>
  
  <!-- Pro Bars -->
  <rect x="480" y="820" width="60" height="20" fill="#10b981"/>
  <text x="485" y="834" font-family="Inter, sans-serif" font-size="10" fill="white">Pro</text>
  <rect x="360" y="865" width="200" height="15" fill="#10b981"/>
  
  <!-- Starter Bars -->
  <rect x="560" y="820" width="80" height="20" fill="#f59e0b"/>
  <text x="565" y="834" font-family="Inter, sans-serif" font-size="10" fill="white">Starter</text>
  <rect x="360" y="885" width="80" height="15" fill="#f59e0b"/>
  
  <!-- Trial Bars -->
  <rect x="660" y="820" width="60" height="20" fill="#8b5cf6"/>
  <text x="665" y="834" font-family="Inter, sans-serif" font-size="10" fill="white">Trial</text>
  <rect x="360" y="905" width="40" height="15" fill="#8b5cf6"/>
  
  <!-- Y-axis Labels -->
  <text x="345" y="855" font-family="Inter, sans-serif" font-size="12" fill="#64748b" text-anchor="end">CPU</text>
  <text x="345" y="875" font-family="Inter, sans-serif" font-size="12" fill="#64748b" text-anchor="end">Memory</text>
  <text x="345" y="895" font-family="Inter, sans-serif" font-size="12" fill="#64748b" text-anchor="end">Storage</text>
  <text x="345" y="915" font-family="Inter, sans-serif" font-size="12" fill="#64748b" text-anchor="end">Network</text>
  
  <!-- Right Panel - Recent Activities -->
  <rect x="1100" y="740" width="320" height="300" rx="12" fill="#1e293b" stroke="#334155" stroke-width="1"/>
  <text x="1120" y="770" font-family="Inter, sans-serif" font-size="18" font-weight="600" fill="#f1f5f9">Recent Activities</text>
  
  <!-- Activity List -->
  <rect x="1120" y="790" width="280" height="40" rx="6" fill="#0f172a"/>
  <circle cx="1140" cy="810" r="4" fill="#10b981"/>
  <text x="1155" y="805" font-family="Inter, sans-serif" font-size="12" font-weight="500" fill="#f1f5f9">New tenant registered</text>
  <text x="1155" y="818" font-family="Inter, sans-serif" font-size="10" fill="#64748b">Acme Corp upgraded to Enterprise • 2h ago</text>
  
  <rect x="1120" y="840" width="280" height="40" rx="6" fill="#0f172a"/>
  <circle cx="1140" cy="860" r="4" fill="#3b82f6"/>
  <text x="1155" y="855" font-family="Inter, sans-serif" font-size="12" font-weight="500" fill="#f1f5f9">Deployment completed</text>
  <text x="1155" y="868" font-family="Inter, sans-serif" font-size="10" fill="#64748b">TechStart deployed frontend-v1.4.2 • 6h ago</text>
  
  <rect x="1120" y="890" width="280" height="40" rx="6" fill="#0f172a"/>
  <circle cx="1140" cy="910" r="4" fill="#f59e0b"/>
  <text x="1155" y="905" font-family="Inter, sans-serif" font-size="12" font-weight="500" fill="#f1f5f9">Resource warning</text>
  <text x="1155" y="918" font-family="Inter, sans-serif" font-size="10" fill="#64748b">DataSync approaching quota limit • 8h ago</text>
  
  <rect x="1120" y="940" width="280" height="40" rx="6" fill="#0f172a"/>
  <circle cx="1140" cy="960" r="4" fill="#ef4444"/>
  <text x="1155" y="955" font-family="Inter, sans-serif" font-size="12" font-weight="500" fill="#f1f5f9">Payment failure</text>
  <text x="1155" y="968" font-family="Inter, sans-serif" font-size="10" fill="#64748b">GlobalLogistics payment declined • 3d ago</text>
  
  <rect x="1120" y="990" width="280" height="40" rx="6" fill="#0f172a"/>
  <circle cx="1140" cy="1010" r="4" fill="#10b981"/>
  <text x="1155" y="1005" font-family="Inter, sans-serif" font-size="12" font-weight="500" fill="#f1f5f9">Trial started</text>
  <text x="1155" y="1018" font-family="Inter, sans-serif" font-size="10" fill="#64748b">New trial user signed up • 1w ago</text>
</svg>
